<svg xmlns="http://www.w3.org/2000/svg" viewBox="0 0 150.31 135.54"><defs><style>.cls-1{fill:none;stroke:#59b7b1;stroke-linecap:round;stroke-miterlimit:10;stroke-width:7.04px;}.cls-2{fill:#59b7b1;}</style></defs><title>audio icon</title><g id="Layer_2" data-name="Layer 2"><g id="Layer_4" data-name="Layer 4"><path class="cls-1" d="M123.92,122.91c29.48-29.47,31.49-78.8,0-110.28"/><path class="cls-1" d="M115.23,109.49c14.93-26.13,14.27-53.82-.15-78.33"/><path class="cls-2" d="M40.93,29.76h-22A18.92,18.92,0,0,0,0,48.68V86.87a18.91,18.91,0,0,0,18.91,18.91h22Z"/><path class="cls-2" d="M76.22,2.6,48.66,29.79l-.23,0v76h.23l27.56,27.18a9,9,0,0,0,15.27-6.39V9A9,9,0,0,0,76.22,2.6Z"/></g></g></svg>