<svg xmlns="http://www.w3.org/2000/svg" viewBox="0 0 133.78 76.85"><defs><style>.cls-1{fill:#59b7b1;}</style></defs><title>down chevron</title><g id="Layer_2" data-name="Layer 2"><g id="Layer_4" data-name="Layer 4"><path class="cls-1" d="M2.05,14.58l58.79,59.6a8.93,8.93,0,0,0,5.73,2.64v0h.64v0a8.93,8.93,0,0,0,5.73-2.64l58.78-59.6c2.8-2.84,2.65-9.28.1-12.27C128.87-1.15,124.6.05,123.65,1,109.84,14.8,72.94,51.39,72.94,51.39a8.23,8.23,0,0,1-12.1,0S23.94,14.8,10.13,1C9.18.05,4.91-1.15,2,2.31-.59,5.3-.74,11.74,2.05,14.58Z"/></g></g></svg>