<svg xmlns="http://www.w3.org/2000/svg" viewBox="0 0 133.78 76.85"><defs><style>.cls-1{fill:#59b7b1;}</style></defs><title>up chevron</title><g id="Layer_2" data-name="Layer 2"><g id="Layer_4" data-name="Layer 4"><path class="cls-1" d="M131.72,62.28,72.94,2.67A8.93,8.93,0,0,0,67.21,0V0l-.32,0-.32,0V0a8.93,8.93,0,0,0-5.73,2.64L2.05,62.28C-.74,65.11-.59,71.55,2,74.54c3,3.46,7.22,2.27,8.17,1.32,13.81-13.81,50.71-50.4,50.71-50.4a8.23,8.23,0,0,1,12.1,0s36.9,36.59,50.71,50.4c.95,1,5.22,2.14,8.17-1.32C134.37,71.55,134.52,65.11,131.72,62.28Z"/></g></g></svg>