<svg id="Layer_1" data-name="Layer 1" xmlns="http://www.w3.org/2000/svg" viewBox="0 0 13.86 15.12"><title>delete</title><path d="M206.33,157.46h-.83c-.28,0-.42-.12-.43-.42,0-.87,0-.89.83-.89s1.44,0,2.16,0a.43.43,0,0,0,.5-.32c.15-.43.34-.84.52-1.26a1.43,1.43,0,0,1,1.38-.93c1,0,2,0,3.07,0a1.45,1.45,0,0,1,1.38.93c.17.43.37.84.52,1.27a.4.4,0,0,0,.46.31h2.52c.37,0,.54.14.51.51a2.16,2.16,0,0,0,0,.36c0,.31-.14.46-.45.45h-.81V158c0,2.91,0,5.82,0,8.73a3,3,0,0,1-.33,1.27,1.33,1.33,0,0,1-1.34.77c-2.59,0-5.19,0-7.78,0a1.71,1.71,0,0,1-1.86-1.84c0-.54,0-1.08,0-1.61v-7.82Zm1.32,0c0,.13,0,.25,0,.36q0,4.36,0,8.72a2.17,2.17,0,0,0,0,.36c.06.44.18.55.63.55h7.43c.45,0,.56-.1.63-.56a3.1,3.1,0,0,0,0-.43v-9Zm6.5-1.35a6.7,6.7,0,0,0-.39-.92.57.57,0,0,0-.4-.26c-.91,0-1.82,0-2.74,0-.11,0-.29.06-.33.14-.17.33-.3.68-.45,1Z" transform="translate(-205.06 -153.62)"/><path d="M210.13,162.47v2.63c0,.46-.07.52-.52.53h-.39a.35.35,0,0,1-.38-.39v-5.57a.34.34,0,0,1,.36-.38h0c.84-.06.89,0,.89.82Z" transform="translate(-205.06 -153.62)"/><path d="M212.63,162.47c0,.89,0,1.78,0,2.67,0,.36-.14.51-.48.49h-.36c-.33,0-.46-.14-.45-.48q0-2.68,0-5.37c0-.35.12-.52.48-.49a1.76,1.76,0,0,0,.23,0c.53,0,.57.05.57.55C212.64,160.72,212.63,161.6,212.63,162.47Z" transform="translate(-205.06 -153.62)"/><path d="M215.15,162.51c0,.88,0,1.76,0,2.63,0,.36-.14.51-.48.49h-.36c-.33,0-.46-.15-.46-.48,0-1.79,0-3.58,0-5.37,0-.35.12-.52.48-.49a1.92,1.92,0,0,0,.24,0c.52,0,.56.05.56.56C215.15,160.73,215.15,161.62,215.15,162.51Z" transform="translate(-205.06 -153.62)"/></svg>