<svg xmlns="http://www.w3.org/2000/svg" viewBox="0 0 94.01 203.07"><defs><style>.cls-1,.cls-2{fill:none;stroke:#59b7b1;stroke-linecap:round;stroke-miterlimit:10;}.cls-1{stroke-width:12.44px;}.cls-2{stroke-width:6.22px;}</style></defs><title>dna icon</title><g id="Layer_2" data-name="Layer 2"><g id="Layer_1-2" data-name="Layer 1"><path class="cls-1" d="M6.22,190.17h0c2.31-21.34,19.49-39.81,46.32-49.39,16.38-5.84,31.77-16.3,33.8-35,2-18.31-10.19-31.4-24.5-40.33-24.5-15.29-38.1-37-35.75-58.65l.06-.6"/><path class="cls-1" d="M67.86,196.85h0c2.31-21.34-10.51-43.06-34.67-58.17C18.45,129.47,5.64,116,7.67,97.27c2-18.3,16.67-28.48,32.57-34.14,27.2-9.69,45.14-28,47.48-49.63l.07-.6"/><line class="cls-2" x1="26.09" y1="6.82" x2="87.72" y2="13.5"/><line class="cls-2" x1="28.38" y1="26.85" x2="80.25" y2="32.47"/><line class="cls-2" x1="18.64" y1="75.55" x2="80.28" y2="82.23"/><line class="cls-2" x1="7.67" y1="97.27" x2="86.34" y2="105.8"/><line class="cls-2" x1="13.97" y1="118.65" x2="75.61" y2="125.33"/><line class="cls-2" x1="18.81" y1="162.58" x2="61.7" y2="167.23"/><line class="cls-2" x1="7.27" y1="180.47" x2="67.97" y2="187.04"/></g></g></svg>