<svg id="Layer_1" data-name="Layer 1" xmlns="http://www.w3.org/2000/svg" viewBox="0 0 15.27 15.12"><defs><style>.cls-1{fill:#231f20;}</style></defs><title>edit</title><path class="cls-1" d="M182,166.37v4.49a.76.76,0,0,1-.76.76H171a.76.76,0,0,1-.76-.76V160.67a.76.76,0,0,1,.76-.76h4.47v-1.2H171a2,2,0,0,0-2,2v10.19a2,2,0,0,0,2,2h10.19a2,2,0,0,0,2-2v-4.49Z" transform="translate(-169.07 -157.69)"/><path d="M174.39,165.42l2.12,2.1,5.73-5.68-2.1-2.1Z" transform="translate(-169.07 -157.69)"/><path d="M184.1,159c-.33-.36-.68-.71-1-1a.94.94,0,0,0-1.33,0c-.34.31-.66.64-1,.95l2.28,2.27c.34-.35.71-.7,1.05-1.07A.73.73,0,0,0,184.1,159Z" transform="translate(-169.07 -157.69)"/><path d="M173.08,168.56c-.07.31.06.42.33.36.79-.18,1.58-.38,2.37-.57l-2.17-2.18C173.43,167,173.27,167.78,173.08,168.56Z" transform="translate(-169.07 -157.69)"/></svg>