<svg xmlns="http://www.w3.org/2000/svg" viewBox="0 0 136.06 159.31"><defs><style>.cls-1{fill:#59b7b1;}</style></defs><title>edit icon 2</title><g id="Layer_2" data-name="Layer 2"><g id="Layer_1-2" data-name="Layer 1"><path class="cls-1" d="M40.74,134,17.61,114.9a1.72,1.72,0,0,1-.43-2.4L96.79,16.31a1.74,1.74,0,0,1,2.44,0l23.13,19.09a1.74,1.74,0,0,1,.43,2.4L43.18,134A1.73,1.73,0,0,1,40.74,134Z"/><path class="cls-1" d="M134.86,23.55c3.08-4.29.06-12.24-6.94-18s-15.39-7.24-19-3.42h0l-7.53,9.1,26,21.45,7.53-9.1Z"/><path class="cls-1" d="M37.87,137.8,14.39,118.44a1.53,1.53,0,0,0-2.15,0l-4.35,5.25a1.22,1.22,0,0,0-.24.5L0,157.27a1.76,1.76,0,0,0,2.33,1.91l31.41-14.07a1.19,1.19,0,0,0,.44-.33l4-4.86A1.54,1.54,0,0,0,37.87,137.8Z"/></g></g></svg>