<svg xmlns="http://www.w3.org/2000/svg" viewBox="0 0 166 166"><defs><style>.cls-1{fill:#59b7b1;}.cls-2{fill:#eef5ff;}</style></defs><title>exit</title><g id="Layer_2" data-name="Layer 2"><g id="Layer_1-2" data-name="Layer 1"><circle class="cls-1" cx="83" cy="83" r="83"/><path class="cls-2" d="M97.47,83l.12-.14,30.62-41.31a2.09,2.09,0,0,0-1.69-3.34H106.11a2.07,2.07,0,0,0-1.7.88l-7.6,10.67c-3.92,5.49-9,12.73-13.12,18.8h-.4c-4.11-6.07-9-13.12-13.12-19l-7.4-10.48a2.1,2.1,0,0,0-1.71-.88H39.48a2.09,2.09,0,0,0-1.68,3.34L67.69,81.75a2.1,2.1,0,0,1,0,2.5L37.8,124.46a2.09,2.09,0,0,0,1.68,3.34H61.06a2.1,2.1,0,0,0,1.71-.88l7.4-10.47c4.12-5.88,9-12.93,13.12-19h.4c4.11,6.07,9.2,13.31,13.12,18.8l7.6,10.67a2.07,2.07,0,0,0,1.7.88h20.41a2.09,2.09,0,0,0,1.69-3.34L97.59,83.15Z"/></g></g></svg>