<svg xmlns="http://www.w3.org/2000/svg" viewBox="0 0 91.24 89.61"><defs><style>.cls-1{fill:#59b7b1;}</style></defs><title>exit icon 2</title><g id="Layer_2" data-name="Layer 2"><g id="Layer_1-2" data-name="Layer 1"><path class="cls-1" d="M60.09,44.79l.12-.14L90.83,3.35A2.1,2.1,0,0,0,89.14,0H68.73A2.11,2.11,0,0,0,67,.88l-7.6,10.67c-3.91,5.49-9,12.73-13.12,18.81h-.39c-4.11-6.08-9-13.13-13.12-19L25.39.89A2.1,2.1,0,0,0,23.67,0H2.1A2.1,2.1,0,0,0,.42,3.35l29.89,40.2a2.1,2.1,0,0,1,0,2.5L.42,86.26A2.1,2.1,0,0,0,2.1,89.61H23.67a2.1,2.1,0,0,0,1.72-.89l7.4-10.47c4.11-5.88,9-12.93,13.12-19h.39c4.12,6.07,9.21,13.32,13.12,18.8L67,88.73a2.11,2.11,0,0,0,1.71.88H89.14a2.1,2.1,0,0,0,1.69-3.35L60.21,45Z"/></g></g></svg>