<svg xmlns="http://www.w3.org/2000/svg" viewBox="0 0 139.23 168.8"><defs><style>.cls-1{fill:#54a39b;}.cls-2{fill:none;stroke:#eef5ff;stroke-linecap:round;stroke-miterlimit:10;stroke-width:5px;}.cls-3{fill:#eef5ff;}.cls-4{fill:#59b7b1;}</style></defs><title>copy icon</title><g id="Layer_2" data-name="Layer 2"><g id="Layer_4" data-name="Layer 4"><path class="cls-1" d="M128.86,139.18H37.33A10.37,10.37,0,0,1,27,128.81V10.37A10.37,10.37,0,0,1,37.33,0h75l0,28.36h26.95V128.81A10.37,10.37,0,0,1,128.86,139.18Z"/><line class="cls-2" x1="44.33" y1="41.87" x2="122.13" y2="41.87"/><line class="cls-2" x1="44.33" y1="61.44" x2="122.13" y2="61.44"/><line class="cls-2" x1="44.33" y1="81.01" x2="122.13" y2="81.01"/><line class="cls-2" x1="44.33" y1="100.58" x2="122.13" y2="100.58"/><line class="cls-2" x1="44.33" y1="120.15" x2="122.13" y2="120.15"/><polygon class="cls-3" points="112.3 0 139.23 28.37 112.28 28.36 112.3 0"/><path class="cls-4" d="M101.9,168.8H10.37A10.37,10.37,0,0,1,0,158.43V40A10.37,10.37,0,0,1,10.37,29.62h75l0,28.36h27V158.43A10.37,10.37,0,0,1,101.9,168.8Z"/><line class="cls-2" x1="17.37" y1="71.49" x2="95.18" y2="71.49"/><line class="cls-2" x1="17.37" y1="91.06" x2="95.18" y2="91.06"/><line class="cls-2" x1="17.37" y1="110.63" x2="95.18" y2="110.63"/><line class="cls-2" x1="17.37" y1="130.2" x2="95.18" y2="130.2"/><line class="cls-2" x1="17.37" y1="149.76" x2="95.18" y2="149.76"/><polygon class="cls-3" points="85.34 29.62 112.28 57.99 85.32 57.98 85.34 29.62"/></g></g></svg>