<svg xmlns="http://www.w3.org/2000/svg" viewBox="0 0 139.23 168.8"><defs><style>.cls-1{fill:#54a39b}.cls-2{fill:none;stroke:#eef5ff;stroke-linecap:round;stroke-miterlimit:10;stroke-width:5px}.cls-3{fill:#eef5ff}.cls-4{fill:#59b7b1}</style></defs><title>copy icon</title><g id="Layer_2" data-name="Layer 2"><g id="Layer_4" data-name="Layer 4"><path class="cls-1" d="M128.86 139.18H37.33A10.37 10.37 0 0 1 27 128.81V10.37A10.37 10.37 0 0 1 37.33 0h75v28.36h26.95v100.45a10.37 10.37 0 0 1-10.42 10.37z"/><path class="cls-2" d="M44.33 41.87h77.8M44.33 61.44h77.8M44.33 81.01h77.8M44.33 100.58h77.8M44.33 120.15h77.8"/><path class="cls-3" d="M112.3 0l26.93 28.37-26.95-.01L112.3 0z"/><path class="cls-4" d="M101.9 168.8H10.37A10.37 10.37 0 0 1 0 158.43V40a10.37 10.37 0 0 1 10.37-10.38h75v28.36h27v100.45a10.37 10.37 0 0 1-10.47 10.37z"/><path class="cls-2" d="M17.37 71.49h77.81M17.37 91.06h77.81M17.37 110.63h77.81M17.37 130.2h77.81M17.37 149.76h77.81"/><path class="cls-3" d="M85.34 29.62l26.94 28.37-26.96-.01.02-28.36z"/></g></g></svg>