<?xml version="1.0" encoding="utf-8"?>
<!-- Generator: Adobe Illustrator 23.0.3, SVG Export Plug-In . SVG Version: 6.00 Build 0)  -->
<svg version="1.1" id="Layer_1" xmlns="http://www.w3.org/2000/svg" xmlns:xlink="http://www.w3.org/1999/xlink" x="0px" y="0px"
	 viewBox="0 0 135.01 217.8" style="enable-background:new 0 0 135.01 217.8;" xml:space="preserve">
<style type="text/css">
	.st0{fill:#59B7B1;}
</style>
<g>
	<g>
		<path class="st0" d="M65.74,206.32c-6.08,0-11-4.92-11-11V21.52c0-6.08,4.92-11,11-11s11,4.92,11,11v173.8
			C76.74,201.39,71.81,206.32,65.74,206.32z"/>
	</g>
	<g>
		<path class="st0" d="M15.7,148.57c4.74-4.78,12.24-5.26,17.64-1.24c7.62,5.69,18.63,10.07,31.68,10.07
			c14.87,0,28.31-5.65,28.31-16.39c0-13.01-17.77-17.9-40.91-23.89C24.94,109.9,10.48,97.3,10.48,75.2
			c0-24.99,20.24-44.82,54.94-44.82c15.38,0,30.23,3.71,42.13,11.27c7.31,4.65,8.12,15.04,1.8,20.97l-0.35,0.32
			c-4.69,4.4-11.77,4.76-17.04,1.08c-7.47-5.23-16.96-8.65-27.79-8.65c-15.7,0-25.91,7.66-25.91,16.75c0,9.92,12.69,14.24,32.1,19.4
			c37.8,9.92,50.61,22.31,50.61,44.82c0,29.95-26.03,46.27-56.8,46.27c-20.55,0-36.44-4.87-47.59-12.33
			c-6.99-4.68-7.95-14.58-2.04-20.55L15.7,148.57z"/>
	</g>
</g>
</svg>
