<svg xmlns="http://www.w3.org/2000/svg" viewBox="0 0 166.63 166.63"><defs><style>.cls-1{fill:#59b7b1;}.cls-2{fill:#eef5ff;}</style></defs><title>info icon</title><g id="Layer_2" data-name="Layer 2"><g id="Layer_1-2" data-name="Layer 1"><circle class="cls-1" cx="83.32" cy="83.32" r="83.32"/><path class="cls-2" d="M93.59,115.69a6.86,6.86,0,0,0,4.73-1.82c1.28-.91,1.64-1.45,2.73-1.45a1.77,1.77,0,0,1,1.82,2c0,1.45-.91,2.91-2.18,4.55C96.5,124.42,90.5,129.33,81,129.33c-12,0-17.28-6.73-17.28-15.09,0-11.64,6-23.47,6-30,0-3.1-1.1-3.46-1.1-5.82,0-4,9.65-6.73,20.19-6.73,4,0,6.19,1.63,6.19,4.73,0,7.27-5.82,20.55-5.82,32.55C89.23,113.51,91.05,115.69,93.59,115.69ZM88,37.3c6.55,0,10.19,4.18,10.19,9.64,0,7.28-6.55,15.1-13.46,15.1A10,10,0,0,1,74.5,52.21C74.5,44.94,81,37.3,88,37.3Z"/></g></g></svg>