<svg xmlns="http://www.w3.org/2000/svg" viewBox="0 0 198.84 194.99"><defs><style>.cls-1{fill:#59b7b1;}</style></defs><title>merge</title><g id="Layer_2" data-name="Layer 2"><g id="Layer_1-2" data-name="Layer 1"><path class="cls-1" d="M128.59,104.07H105.71v24.78a3.61,3.61,0,0,1-3.62,3.62H96.18a3.62,3.62,0,0,1-3.62-3.62V104.07H69.69a3.74,3.74,0,0,1-3.62-3.62V94.54a3.62,3.62,0,0,1,3.62-3.62H92.56V66.14a3.62,3.62,0,0,1,3.62-3.62h5.91a3.62,3.62,0,0,1,3.62,3.62V90.92h22.88a3.51,3.51,0,0,1,3.62,3.62v5.91A3.62,3.62,0,0,1,128.59,104.07Z"/><polygon class="cls-1" points="53.59 49.75 0 49.75 0 194.99 145.24 194.99 145.24 145.24 53.59 145.24 53.59 49.75"/><polygon class="cls-1" points="198.84 0 53.59 0 53.59 49.75 145.24 49.75 145.24 145.24 198.84 145.24 198.84 0"/></g></g></svg>