<?xml version="1.0" encoding="utf-8"?>
<!-- Generator: Adobe Illustrator 23.0.3, SVG Export Plug-In . SVG Version: 6.00 Build 0)  -->
<svg version="1.1" id="Layer_1" xmlns="http://www.w3.org/2000/svg" xmlns:xlink="http://www.w3.org/1999/xlink" x="0px" y="0px"
	 viewBox="0 0 184.99 216.75" style="enable-background:new 0 0 184.99 216.75;" xml:space="preserve">
<style type="text/css">
	.st0{fill:none;stroke:#59B7B1;stroke-miterlimit:10;}
	.st1{fill:#54A39B;}
	.st2{fill:#59B7B1;}
	.st3{fill:#EEF5FF;}
</style>
<g>
	<path class="st0" d="M1035.42,355"/>
	<path class="st1" d="M981.36,434.86h-97.19c-7.63,0-13.82-6.19-13.82-13.82V288.3c0-7.63,6.19-13.82,13.82-13.82h97.19
		c7.63,0,13.82,6.19,13.82,13.82v132.74C995.18,428.67,988.99,434.86,981.36,434.86z"/>
	<g>
		<g>
			<path class="st2" d="M932.76,460.5h-91.53c-5.73,0-10.37-4.64-10.37-10.37V331.69c0-5.73,4.64-10.37,10.37-10.37h74.97
				l-0.02,28.36l26.96,0.02v100.44C943.13,455.85,938.49,460.5,932.76,460.5z"/>
		</g>
		<g>
			<path class="st3" d="M926.04,365.68h-77.81c-1.38,0-2.5-1.12-2.5-2.5s1.12-2.5,2.5-2.5h77.81c1.38,0,2.5,1.12,2.5,2.5
				S927.42,365.68,926.04,365.68z"/>
		</g>
		<g>
			<path class="st3" d="M926.04,385.25h-77.81c-1.38,0-2.5-1.12-2.5-2.5s1.12-2.5,2.5-2.5h77.81c1.38,0,2.5,1.12,2.5,2.5
				S927.42,385.25,926.04,385.25z"/>
		</g>
		<g>
			<path class="st3" d="M926.04,404.82h-77.81c-1.38,0-2.5-1.12-2.5-2.5s1.12-2.5,2.5-2.5h77.81c1.38,0,2.5,1.12,2.5,2.5
				S927.42,404.82,926.04,404.82z"/>
		</g>
		<g>
			<path class="st3" d="M926.04,424.39h-77.81c-1.38,0-2.5-1.12-2.5-2.5s1.12-2.5,2.5-2.5h77.81c1.38,0,2.5,1.12,2.5,2.5
				S927.42,424.39,926.04,424.39z"/>
		</g>
		<g>
			<path class="st3" d="M926.04,443.96h-77.81c-1.38,0-2.5-1.12-2.5-2.5s1.12-2.5,2.5-2.5h77.81c1.38,0,2.5,1.12,2.5,2.5
				S927.42,443.96,926.04,443.96z"/>
		</g>
		<g>
			<polygon class="st3" points="916.2,321.31 943.13,349.69 916.18,349.67 			"/>
		</g>
	</g>
	<path class="st2" d="M970.45,262.51c-1.94-2.26-5.08-1.61-5.08-1.61h-29.76h-29.76c0,0-3.15-0.65-5.08,1.61
		c-1.94,2.26-2.39,6.13-2.39,6.13v15.97h37.24h37.24v-15.97C972.85,268.65,972.39,264.77,970.45,262.51z"/>
</g>
<g>
	<path class="st0" d="M215.42,103"/>
	<path class="st1" d="M161.36,182.86H64.16c-7.63,0-13.82-6.19-13.82-13.82V36.3c0-7.63,6.19-13.82,13.82-13.82h97.19
		c7.63,0,13.82,6.19,13.82,13.82v132.74C175.18,176.67,168.99,182.86,161.36,182.86z"/>
	<g>
		<g>
			<path class="st2" d="M112.76,208.5H21.23c-5.73,0-10.37-4.64-10.37-10.37V79.69c0-5.73,4.64-10.37,10.37-10.37H96.2l-0.02,28.36
				l26.96,0.02v100.44C123.13,203.85,118.49,208.5,112.76,208.5z"/>
		</g>
		<g>
			<path class="st3" d="M106.04,113.68H28.23c-1.38,0-2.5-1.12-2.5-2.5s1.12-2.5,2.5-2.5h77.81c1.38,0,2.5,1.12,2.5,2.5
				S107.42,113.68,106.04,113.68z"/>
		</g>
		<g>
			<path class="st3" d="M106.04,133.25H28.23c-1.38,0-2.5-1.12-2.5-2.5s1.12-2.5,2.5-2.5h77.81c1.38,0,2.5,1.12,2.5,2.5
				S107.42,133.25,106.04,133.25z"/>
		</g>
		<g>
			<path class="st3" d="M106.04,152.82H28.23c-1.38,0-2.5-1.12-2.5-2.5s1.12-2.5,2.5-2.5h77.81c1.38,0,2.5,1.12,2.5,2.5
				S107.42,152.82,106.04,152.82z"/>
		</g>
		<g>
			<path class="st3" d="M106.04,172.39H28.23c-1.38,0-2.5-1.12-2.5-2.5s1.12-2.5,2.5-2.5h77.81c1.38,0,2.5,1.12,2.5,2.5
				S107.42,172.39,106.04,172.39z"/>
		</g>
		<g>
			<path class="st3" d="M106.04,191.96H28.23c-1.38,0-2.5-1.12-2.5-2.5s1.12-2.5,2.5-2.5h77.81c1.38,0,2.5,1.12,2.5,2.5
				S107.42,191.96,106.04,191.96z"/>
		</g>
		<g>
			<polygon class="st3" points="96.2,69.31 123.13,97.69 96.18,97.67 			"/>
		</g>
	</g>
	<path class="st2" d="M150.45,10.51c-1.94-2.26-5.08-1.61-5.08-1.61h-29.76H85.85c0,0-3.15-0.65-5.08,1.61
		c-1.94,2.26-2.39,6.13-2.39,6.13v15.97h37.24h37.24V16.65C152.85,16.65,152.39,12.77,150.45,10.51z"/>
</g>
</svg>
