<svg xmlns="http://www.w3.org/2000/svg" viewBox="0 0 166.63 166.63"><defs><style>.cls-1{fill:#59b7b1;}.cls-2{fill:#eef5ff;}</style></defs><title>plus icon</title><g id="Layer_2" data-name="Layer 2"><g id="Layer_1-2" data-name="Layer 1"><circle class="cls-1" cx="83.32" cy="83.32" r="83.32"/><path class="cls-2" d="M119.83,91.47H91.47V122.2A4.49,4.49,0,0,1,87,126.69H79.65a4.49,4.49,0,0,1-4.49-4.49V91.47H46.8A4.65,4.65,0,0,1,42.31,87V79.65a4.49,4.49,0,0,1,4.49-4.49H75.16V44.44A4.48,4.48,0,0,1,79.65,40H87a4.48,4.48,0,0,1,4.49,4.49V75.16h28.36a4.34,4.34,0,0,1,4.49,4.49V87A4.49,4.49,0,0,1,119.83,91.47Z"/></g></g></svg>