<svg xmlns="http://www.w3.org/2000/svg" viewBox="0 0 82.01 86.74"><defs><style>.cls-1{fill:#59b7b1;}</style></defs><title>plus icon 2</title><g id="Layer_2" data-name="Layer 2"><g id="Layer_1-2" data-name="Layer 1"><path class="cls-1" d="M77.52,51.52H49.16V82.25a4.49,4.49,0,0,1-4.49,4.49H37.34a4.49,4.49,0,0,1-4.49-4.49V51.52H4.49A4.65,4.65,0,0,1,0,47V39.71a4.49,4.49,0,0,1,4.49-4.49H32.85V4.49A4.49,4.49,0,0,1,37.34,0h7.33a4.49,4.49,0,0,1,4.49,4.49V35.22H77.52A4.34,4.34,0,0,1,82,39.71V47A4.48,4.48,0,0,1,77.52,51.52Z"/></g></g></svg>